<?xml version="1.0" encoding="UTF-8"?>
<svg width="24px" height="24px" fill="#000000" version="1.1" viewBox="0 0 24 24" xmlns="http://www.w3.org/2000/svg">
 <path d="M0 0h24v24H0z" fill="none"/>
 <path d="m15.2 7.2c-3.2542 0.00552-6.5091-0.011044-9.7632 0.0083-0.93688 0.068782-1.558 1.017-1.437 1.9085 0.00551 3.1486-0.011042 6.2979 0.0083 9.4464 0.068782 0.93688 1.017 1.558 1.9085 1.437 3.1486-0.0055 6.2979 0.01104 9.4464-0.0083 0.93688-0.06878 1.558-1.017 1.437-1.9085-0.0055-3.1486 0.01104-6.2979-0.0083-9.4464-0.06796-0.79422-0.79376-1.4516-1.5917-1.437zm0 11.2h-9.6v-9.6h9.6z" stroke-width=".8"/>
 <path d="m8.7998 4c-0.976-0.029608-1.7297 0.93368-1.6 1.8715v2.9285h1.6v-3.2h9.6v9.6h-3.2v1.6c1.1733-0.01851 2.3514 0.03906 3.5214-0.03266 0.86592-0.15325 1.3836-1.049 1.2786-1.8842-0.0055-3.1486 0.01104-6.2979-0.0083-9.4464-0.06878-0.93688-1.017-1.558-1.9085-1.437h-9.2832z" stroke-width=".8"/>
</svg>
